<?xml version="1.0" encoding="utf-8"?>
<!-- Generator: Adobe Illustrator 22.0.0, SVG Export Plug-In . SVG Version: 6.00 Build 0)  -->
<svg version="1.1" xmlns="http://www.w3.org/2000/svg" xmlns:xlink="http://www.w3.org/1999/xlink" x="0px" y="0px"
	 viewBox="0 0 32 32" style="enable-background:new 0 0 32 32;" xml:space="preserve">
<style type="text/css">
	.st0{display:none;}
	.st1{display:inline;}
	.st2{fill:#CDF6F9;}
	.st3{fill:#FFFFFF;}
	.st4{fill:#1A83A8;}
</style>
<g id="Layer_1" class="st0">
</g>
<g id="Layer_2">
</g>
<g id="Layer_3">
</g>
<g id="Layer_4">
</g>
<g id="Layer_5">
</g>
<g id="Layer_6">
</g>
<g id="Layer_7">
</g>
<g id="Layer_8">
</g>
<g id="Layer_9">
</g>
<g id="Layer_10">
</g>
<g id="Layer_11">
</g>
<g id="Layer_12">
</g>
<g id="Layer_13">
</g>
<g id="Layer_14">
</g>
<g id="Layer_15">
</g>
<g id="Layer_16">
</g>
<g id="Layer_17">
</g>
<g id="Layer_18">
</g>
<g id="Layer_19">
</g>
<g id="Layer_20">
</g>
<g id="Layer_21">
</g>
<g id="Layer_22">
</g>
<g id="Layer_23">
</g>
<g id="Layer_24">
</g>
<g id="Layer_25">
</g>
<g id="Layer_26">
	<path class="st3" d="M21.32,2c-0.9,0-1.67,0.64-1.85,1.52l-0.14,0.71c-0.17,0.88-0.94,1.52-1.84,1.52h-2.98
		c-0.9,0-1.67-0.64-1.84-1.52l-0.14-0.71C12.35,2.64,11.58,2,10.68,2H21.32z"/>
	<path class="st2" d="M25.56,5.15v21.7c0,1.74-1.41,3.15-3.15,3.15H9.59c-1.74,0-3.15-1.41-3.15-3.15V5.15C6.44,3.41,7.85,2,9.59,2
		h1.09c0.9,0,1.67,0.64,1.85,1.52l0.14,0.71c0.17,0.88,0.94,1.52,1.84,1.52h2.98c0.9,0,1.67-0.64,1.84-1.52l0.14-0.71
		C19.65,2.64,20.42,2,21.32,2h1.09C24.15,2,25.56,3.41,25.56,5.15z"/>
	<path class="st4" d="M22.41,1.1H9.59c-2.232,0-4.05,1.817-4.05,4.051V26.85c0,2.233,1.817,4.051,4.05,4.051h12.82
		c2.232,0,4.05-1.817,4.05-4.051V5.15C26.46,2.917,24.643,1.1,22.41,1.1z M18.719,2.9c-0.054,0.143-0.099,0.291-0.129,0.445
		l-0.14,0.711c-0.091,0.46-0.496,0.793-0.964,0.793h-2.973c-0.468,0-0.873-0.333-0.964-0.793l-0.14-0.71
		c-0.03-0.154-0.075-0.303-0.129-0.446H18.719z M24.659,26.85c0,1.241-1.009,2.25-2.249,2.25H9.59c-1.24,0-2.249-1.009-2.249-2.25
		V5.15c0-1.241,1.009-2.25,2.249-2.25h1.092c0.468,0,0.873,0.333,0.963,0.793l0.14,0.711c0.256,1.301,1.404,2.246,2.729,2.246h2.973
		c1.325,0,2.474-0.945,2.729-2.246l0.14-0.712c0.09-0.459,0.495-0.792,0.963-0.792h1.092c1.24,0,2.249,1.009,2.249,2.25V26.85z"/>
	<path class="st4" d="M17.5,25.1h-3c-0.497,0-0.9,0.403-0.9,0.9s0.403,0.9,0.9,0.9h3c0.497,0,0.9-0.403,0.9-0.9
		S17.997,25.1,17.5,25.1z"/>
	<path class="st4" d="M16.931,13.62c0.104,0.382,0.453,0.663,0.868,0.663c0.497,0,0.9-0.403,0.9-0.9
		c0-0.862-0.701-1.563-1.563-1.563H16.9v-0.427c0-0.497-0.403-0.9-0.9-0.9s-0.9,0.403-0.9,0.9v0.427h-0.235
		c-0.862,0-1.563,0.701-1.563,1.563v1.955c0,0.861,0.701,1.563,1.563,1.563h2.034v1.479h-1.829
		c-0.104-0.382-0.453-0.663-0.868-0.663c-0.497,0-0.9,0.403-0.9,0.9c0,0.862,0.701,1.563,1.563,1.563H15.1v0.427
		c0,0.497,0.403,0.9,0.9,0.9s0.9-0.403,0.9-0.9v-0.427h0.235c0.862,0,1.563-0.701,1.563-1.563v-1.955
		c0-0.861-0.701-1.563-1.563-1.563h-2.034V13.62H16.931z"/>
</g>
</svg>
