<?xml version="1.0" encoding="UTF-8" standalone="no"?> <svg id="clean" xmlns="http://www.w3.org/2000/svg" viewBox="0 0 64 64"><path d="M62.778,9.224,60.549,7.167a1,1,0,0,0-1.4.043L57.719,8.7l-.687-.645a1,1,0,0,0-1.452.087l-3.372,4.039a1,1,0,0,0-.151,1.021l-2.144,2.328a6.689,6.689,0,0,0-11.179-2.215,6.64,6.64,0,0,0-1.774,4.5,3.372,3.372,0,0,0-2.916.843l-3.523,3.291-12.465,6.89-6.048,3.21a1,1,0,0,0,.034,1.784,35.842,35.842,0,0,1,5.532,3.4L9.367,46.09a.985.985,0,0,0-.218.417L6.753,48.4a1,1,0,0,0-.323.451L5.022,52.812a1.431,1.431,0,0,0,.345,1.508,1.4,1.4,0,0,0,1.5.312L8.819,53.9a.988.988,0,0,0,.357-.23l3.329-3.345a.969.969,0,0,0,1.319-.114l7.637-8.255a1,1,0,0,0,.922.311,8.749,8.749,0,0,1,1.656-.13L15.3,51.579a.99.99,0,0,0-.2.995l-1.543,1.35a1,1,0,0,0-.284.418L11.86,58.3a1.438,1.438,0,0,0,1.348,1.917,1.5,1.5,0,0,0,.51-.091l1.953-.743a1,1,0,0,0,.38-.257L18.924,56c.029,0,.057.016.086.016a1,1,0,0,0,.734-.321L29.959,44.674c.158.023.317.05.478.084.659.138,1.769.472,1.794,1.156a1,1,0,0,0,1.848.493l9-14.363,3.465-3.995a.981.981,0,0,0,.264-.193l9.7-10.531a1.022,1.022,0,0,0,.232.044H56.8a1,1,0,0,0,.71-.357l5.362-6.41A1,1,0,0,0,62.778,9.224Zm-7.143,6.091,0,0,0,0-8.923,9.69-1.1-.751a6.662,6.662,0,0,0,4.724-6.227l4.035-4.385,1.513,1.4Zm-12.17-2.138c.061,0,.121,0,.182,0a4.693,4.693,0,0,1,.178,9.383,4.84,4.84,0,0,1-.943-.061l-.007,0a4.692,4.692,0,0,1,.59-9.317ZM7.912,52.1l-.595.223.9-2.538L10.2,48.224l.819.756Zm5.122-3.985-1.519-1.4,7.595-8.2a10.306,10.306,0,0,1,1.378,1.545Zm1.705,9.48-.586.223.912-2.563,1.4-1.229.838.777Zm4.215-3.988-1.513-1.405,8.822-9.528a2,2,0,0,1,.9,1.164.982.982,0,0,0,.361.515ZM33.29,43.9a5.2,5.2,0,0,0-2.442-1.1,12.231,12.231,0,0,0-2.039-.235,4.127,4.127,0,0,0-2.43-2.045l-.016-.007a8.278,8.278,0,0,0-3.51-.344c-.059-.132-.13-.263-.2-.394l-.008-.017A14.742,14.742,0,0,0,18.351,35.3l8.2-5.469a1,1,0,1,0-1.11-1.664l-8.877,5.918c-.707-.449-1.377-.842-1.947-1.16L19.008,30.6l17.323-9.574L37.637,22l-.278.232a1,1,0,0,0,1.282,1.536l.643-.537,1.854,1.386-1.81,1.642a1,1,0,0,0,1.344,1.482l2.1-1.9,1.251.934ZM57.533,13.86l-2.322-2.152,1.225-1.466.636.6a1,1,0,0,0,1.407-.037l1.436-1.5.807.745Z"/><path d="M5.805,17.061a6.579,6.579,0,0,1,7.483-4.093c4.871.7,5.805,3.893,5.84,4.02a1,1,0,0,0,.8.738,1.07,1.07,0,0,0,.169.014,1,1,0,0,0,.831-.444c.479-.714,2.077-2.681,3.7-3.194a1.188,1.188,0,0,0,.133-.053c.155-.075,3.869-1.773,8.046,1.567a1,1,0,1,0,1.249-1.561,11.409,11.409,0,0,0-3.918-2.091A7.233,7.233,0,0,0,26.312,6.35a8.354,8.354,0,0,0-9.548.966,7.593,7.593,0,0,0-6.118-4.347C2.178,2.342,1.021,9.856,1.01,9.932a1,1,0,0,0,1.979.287c.036-.235.939-5.732,7.5-5.257a5.51,5.51,0,0,1,4.82,4.355,1,1,0,0,0,1.73.466c.156-.174,3.854-4.254,8.276-1.7a5.363,5.363,0,0,1,2.73,3.5,8.922,8.922,0,0,0-4.079.637A9.176,9.176,0,0,0,20.3,14.874c-.921-1.418-2.853-3.332-6.73-3.886a8.553,8.553,0,0,0-9.662,5.436,1,1,0,0,0,1.9.637Z"/><path d="M50.8,48.917a9,9,0,0,0-5.4,2.675c-5.054-3.343-10.423-.512-12.646,1.563a1,1,0,1,0,1.364,1.462c.219-.2,5.247-4.773,10.345-1.219a16.034,16.034,0,0,0-7.031,4.608,1,1,0,0,0,1.533,1.285c.035-.042,3.524-4.145,8.177-4.336,2.617-.111,5.127,1.052,7.489,3.444a1,1,0,0,0,1.423-1.405c-2.774-2.81-5.8-4.164-8.994-4.037-.069,0-.135.014-.2.018a6.977,6.977,0,0,1,4.169-2.07c2.238-.211,4.6.812,7.044,3.047a1,1,0,0,0,1.35-1.476C56.524,49.833,53.629,48.635,50.8,48.917Z"/><path d="M54.483,25.323,44.542,38.03a1,1,0,0,0,1.576,1.233l9.941-12.708a1,1,0,0,0-1.576-1.232Z"/><path d="M51.724,35.1a1,1,0,0,0,.224,1.4,1,1,0,0,0,1.4-.224l3.948-5.457a1,1,0,1,0-1.621-1.171Z"/><path d="M19.255,20.562a1,1,0,0,0-1.412-.084L7.563,29.6A1,1,0,1,0,8.89,31.1l10.28-9.123A1,1,0,0,0,19.255,20.562Z"/><path d="M17.933,26.967a.99.99,0,0,0,.645-.237l7.14-6.04a1,1,0,1,0-1.292-1.526l-7.14,6.04a1,1,0,0,0,.647,1.763Z"/></svg>