<?xml version="1.0" encoding="UTF-8" standalone="no"?> <svg id="Layer_2" data-name="Layer 2" xmlns="http://www.w3.org/2000/svg" viewBox="0 0 496.24 407.27"><defs><style>.cls-1{fill:#00aeef;}</style></defs><path class="cls-1" d="M252.68,178.17s-20.18-72,51.5-113.62,123.23,21,123.23,21,53.21-13.87,64-24.81c0,0-11.3,37.5-43.55,55.69,0,0,42.18-5.79,57.06-15.16,0,0-31.15,42.73-51,52.38,0,0,19.85,169.55-155.49,272.65,0,0-66.71,33.64-123.78,31.15s-104.21-6.89-166-46c0,0,82.43,14.33,148.32-41.91,0,0-70-2.48-93.19-70.85,0,0,27,5.24,45.49-1.65,0,0-76.64-12.41-84.08-101.73,0,0,38.32,16.26,48.79,12.68,0,0-77.19-46.32-31.42-136.19C42.56,71.72,118.75,173.24,252.68,178.17Z" transform="translate(-8.65 -50.26)"/></svg>